<svg xmlns="http://www.w3.org/2000/svg" width="512" height="512" viewBox="0 0 100 100">
  <path d="M100.000 50.000 L99.976 64.972 L99.904 69.747 L99.783 73.205 L99.613 76.005 L99.395 78.392 L99.127 80.486 L98.810 82.357 L98.441 84.049 L98.021 85.593 L97.549 87.010 L97.023 88.317 L96.442 89.524 L95.804 90.643 L95.107 91.679 L94.349 92.639 L93.528 93.528 L92.639 94.349 L91.679 95.107 L90.643 95.804 L89.524 96.442 L88.317 97.023 L87.010 97.549 L85.593 98.021 L84.049 98.441 L82.357 98.810 L80.486 99.127 L78.392 99.395 L76.005 99.613 L73.205 99.783 L69.747 99.904 L64.972 99.976 L50.000 100.000 L35.028 99.976 L30.253 99.904 L26.795 99.783 L23.995 99.613 L21.608 99.395 L19.514 99.127 L17.643 98.810 L15.951 98.441 L14.407 98.021 L12.990 97.549 L11.683 97.023 L10.476 96.442 L9.357 95.804 L8.321 95.107 L7.361 94.349 L6.472 93.528 L5.651 92.639 L4.893 91.679 L4.196 90.643 L3.558 89.524 L2.977 88.317 L2.451 87.010 L1.979 85.593 L1.559 84.049 L1.190 82.357 L0.873 80.486 L0.605 78.392 L0.387 76.005 L0.217 73.205 L0.096 69.747 L0.024 64.972 L0.000 50.000 L0.024 35.028 L0.096 30.253 L0.217 26.795 L0.387 23.995 L0.605 21.608 L0.873 19.514 L1.190 17.643 L1.559 15.951 L1.979 14.407 L2.451 12.990 L2.977 11.683 L3.558 10.476 L4.196 9.357 L4.893 8.321 L5.651 7.361 L6.472 6.472 L7.361 5.651 L8.321 4.893 L9.357 4.196 L10.476 3.558 L11.683 2.977 L12.990 2.451 L14.407 1.979 L15.951 1.559 L17.643 1.190 L19.514 0.873 L21.608 0.605 L23.995 0.387 L26.795 0.217 L30.253 0.096 L35.028 0.024 L50.000 0.000 L64.972 0.024 L69.747 0.096 L73.205 0.217 L76.005 0.387 L78.392 0.605 L80.486 0.873 L82.357 1.190 L84.049 1.559 L85.593 1.979 L87.010 2.451 L88.317 2.977 L89.524 3.558 L90.643 4.196 L91.679 4.893 L92.639 5.651 L93.528 6.472 L94.349 7.361 L95.107 8.321 L95.804 9.357 L96.442 10.476 L97.023 11.683 L97.549 12.990 L98.021 14.407 L98.441 15.951 L98.810 17.643 L99.127 19.514 L99.395 21.608 L99.613 23.995 L99.783 26.795 L99.904 30.253 L99.976 35.028 L100.000 50.000 Z" fill="#ee8413"></path>
  <g transform="translate(-1 1)">
    <path d="M20 15 H37 V56 H72 V73 H20 Z" transform="translate(10 10)" fill="#000000" fill-opacity="0.2"></path>
    <path d="M20 15 H37 V56 H72 V73 H20 Z" fill="#fff8ec"></path>
  </g>
</svg>